<?xml version="1.0" encoding="UTF-8"?>
<svg width="120px" height="24px" viewBox="0 0 120 24" version="1.1" xmlns="http://www.w3.org/2000/svg" xmlns:xlink="http://www.w3.org/1999/xlink">
    <title>yami-logo</title>
    <defs>
        <polygon id="path-1" points="0 0.169121662 4.00317507 0.169121662 4.00317507 2.49576855 0 2.49576855"></polygon>
        <polygon id="path-3" points="0.0247477745 0.0631691395 17.6740059 0.0631691395 17.6740059 22.2551929 0.0247477745 22.2551929"></polygon>
        <polygon id="path-5" points="0.00445103858 0.0429080119 26.5246291 0.0429080119 26.5246291 15.9718932 0.00445103858 15.9718932"></polygon>
        <polygon id="path-7" points="0 22.568368 119.836736 22.568368 119.836736 0.178041543 0 0.178041543"></polygon>
    </defs>
    <g id="Page-1" stroke="none" stroke-width="1" fill="none" fill-rule="evenodd">
        <g id="Landing-Page--D" transform="translate(-63.000000, -32.000000)">
            <g id="yami-logo" transform="translate(63.000000, 32.000000)">
                <g id="logo-icon" transform="translate(0.033205, 0.251715)" fill="#00B64E">
                    <path d="M5.27132938,9.15797626 C5.22931157,9.16260534 5.18604748,9.16527596 5.14189318,9.16527596 L3.8288368,9.16527596 L3.83026113,9.15797626 L5.27132938,9.15797626 Z" id="Fill-1"></path>
                    <path d="M24.2716914,11.4445104 C22.4702671,11.4445104 21.0097923,9.98403561 21.0097923,8.18261128 C21.0097923,6.38047478 22.4702671,4.92 24.2716914,4.92 C26.0731157,4.92 27.5335905,6.38047478 27.5335905,8.18261128 C27.5335905,9.98403561 26.0731157,11.4445104 24.2716914,11.4445104 M36.5549555,1.51175074 L36.5549555,1.50658754 C36.5535312,1.48183976 36.5522849,1.45780415 36.5496142,1.4335905 C36.5449852,1.384273 36.5376855,1.33637982 36.5282493,1.28902077 C36.5275371,1.28688427 36.5275371,1.28492582 36.5268249,1.28225519 C36.5182789,1.24077151 36.5083086,1.20017804 36.4969139,1.16083086 C36.4954896,1.15620178 36.4942433,1.15210682 36.492997,1.14818991 C36.4862315,1.12611276 36.4789318,1.10492582 36.471454,1.084273 C36.4709199,1.08356083 36.4709199,1.08284866 36.4709199,1.0821365 C36.462908,1.06077151 36.4548961,1.03940653 36.4461721,1.01875371 C36.4228487,0.962670623 36.3961424,0.907833828 36.3667656,0.855845697 C36.3580415,0.839821958 36.3494955,0.824688427 36.3393472,0.808664688 C36.3274184,0.789792285 36.3160237,0.771988131 36.3033828,0.753827893 C36.2934125,0.73851632 36.2820178,0.723204748 36.2708012,0.707715134 C36.2448071,0.671038576 36.2159644,0.635074184 36.1853412,0.601068249 C36.1751929,0.589673591 36.1652226,0.578456973 36.1547181,0.567596439 C36.1411869,0.552284866 36.1265875,0.536973294 36.1118101,0.522195846 C36.0993472,0.510267062 36.0872404,0.498338279 36.0745994,0.486231454 C36.0005341,0.417507418 35.9197033,0.354836795 35.8344214,0.299465875 C35.8303264,0.296795252 35.8256973,0.293412463 35.8210682,0.290919881 C35.7989911,0.276142433 35.7756677,0.262077151 35.7523442,0.248724036 C35.7169139,0.228783383 35.6814837,0.210089021 35.6448071,0.192106825 C35.6209496,0.18 35.5962018,0.168783383 35.5721662,0.157922849 C35.5700297,0.157388724 35.5687834,0.156854599 35.5668249,0.156142433 C35.5440356,0.145994065 35.5207122,0.136557864 35.4966766,0.127477745 C35.408724,0.0925816024 35.318635,0.0653412463 35.2258754,0.0446884273 C35.2005935,0.0391691395 35.1751335,0.0338278932 35.1498516,0.0293768546 C35.1265282,0.0252818991 35.1024926,0.0213649852 35.0791691,0.0178041543 C34.9944214,0.00587537092 34.9082493,1.95399252e-14 34.8229674,1.95399252e-14 L8.60385757,1.95399252e-14 C8.02664688,1.95399252e-14 7.55964392,0.506884273 7.55964392,1.13287834 C7.55964392,1.44569733 7.67643917,1.72931751 7.8651632,1.93406528 C8.05406528,2.13952522 8.31489614,2.2662908 8.60385757,2.2662908 L14.7352522,2.2662908 L14.7706825,2.2684273 C15.0662315,2.2684273 15.3345401,2.39839763 15.5286053,2.60937685 C15.7226706,2.82035608 15.8421365,3.11109792 15.8421365,3.43192878 C15.8421365,4.07448071 15.3632047,4.59489614 14.7706825,4.59489614 L7.08373887,4.59489614 L6.36783383,4.60362018 C5.77531157,4.60362018 5.29566766,5.12474777 5.29566766,5.76712166 C5.29566766,6.08813056 5.4158457,6.37905045 5.60919881,6.58985163 C5.80344214,6.80011869 6.0715727,6.93026706 6.36783383,6.93026706 L6.73940653,6.93026706 L6.73816024,6.93881306 L7.60557864,6.93881306 C7.90183976,6.93881306 8.16997033,7.06896142 8.36350148,7.27976261 C8.55756677,7.4905638 8.67774481,7.78166172 8.67774481,8.10249258 C8.67774481,8.70089021 8.26077151,9.19388724 7.72486647,9.25816024 C7.68551929,9.26278932 7.64617211,9.26545994 7.60557864,9.26545994 L1.07163205,9.25816024 C0.479821958,9.25816024 -5.32907052e-14,9.77910979 -5.32907052e-14,10.4216617 C-5.32907052e-14,10.7426706 0.120178042,11.0334125 0.313709199,11.2443917 C0.507774481,11.4551929 0.77537092,11.5853412 1.07163205,11.5853412 L11.2944214,11.6093769 C11.5913947,11.6093769 11.8589911,11.7393472 12.0532344,11.9503264 C12.2472997,12.1609496 12.3674777,12.4518694 12.3674777,12.7728783 C12.3674777,13.4154303 11.8869436,13.9358457 11.2944214,13.9358457 L9.4062908,13.9399407 C8.87590504,13.9938872 8.46089021,14.4822552 8.46089021,15.0781602 C8.46089021,15.3938279 8.57768546,15.6792285 8.76658754,15.8861128 C8.95602374,16.092819 9.21614243,16.2210089 9.50510386,16.2210089 L10.6812463,16.2224332 L32.9781009,16.2311573 C33.214362,16.2311573 33.4278338,16.1843323 33.6179822,16.0962018 C33.6626706,16.075549 33.7059347,16.0529377 33.7479525,16.0274777 C33.7646884,16.0176855 33.7821365,16.0068249 33.7986944,15.9961424 C33.8020772,15.994184 33.8059941,15.9915134 33.8093769,15.9888427 C33.8239763,15.9795846 33.8387537,15.9694362 33.8526409,15.9587537 C33.8708012,15.9468249 33.8873591,15.9334718 33.9048071,15.9195846 C33.9162018,15.9113947 33.9267062,15.9028487 33.9381009,15.8927003 C33.9454006,15.8873591 33.9528783,15.8814837 33.9594659,15.8747181 C33.972819,15.8633234 33.9868843,15.8513947 33.9995252,15.8394659 L34.0121662,15.8273591 C34.0303264,15.8106231 34.0475964,15.7933531 34.0648665,15.7753709 C34.0828487,15.7559644 34.101543,15.7365579 34.1197033,15.715905 C34.1350148,15.698635 34.1496142,15.681365 34.1636795,15.6632047 C34.1683086,15.6578635 34.1724036,15.6532344 34.1763205,15.6486053 C34.191632,15.6291988 34.2064095,15.6092582 34.2210089,15.5891395 C34.2217211,15.5884273 34.2231454,15.5877151 34.2236795,15.5866469 C34.2397033,15.5645697 34.2550148,15.5417804 34.2712166,15.518457 C34.3297923,15.4290801 34.3839169,15.3329377 34.4325223,15.2302077 C34.4472997,15.1988724 34.4611869,15.1675371 34.4752522,15.1349555 C34.5053412,15.0655193 34.5318694,14.9941246 34.5560831,14.9193472 C34.5646291,14.8945994 34.5733531,14.8691395 34.5806528,14.8440356 C34.590089,14.8132344 34.5993472,14.7818991 34.6080712,14.7498516 C34.6139466,14.7291988 34.6194659,14.7078338 34.624095,14.6864688 C34.6274777,14.6752522 34.6306825,14.6636795 34.6326409,14.6524629 C34.6381602,14.6330564 34.6420772,14.6138279 34.6467062,14.5942433 C34.6540059,14.5616617 34.6613056,14.5281899 34.6673591,14.494362 C34.6753709,14.4548368 34.6828487,14.4149555 34.6894362,14.374184 L36.3947181,2.80219585 L36.4636202,2.33519288 L36.5343027,1.85661721 C36.5496142,1.76261128 36.5569139,1.67181009 36.5569139,1.58385757 C36.5569139,1.55982196 36.5563798,1.53596439 36.5549555,1.51175074" id="Fill-3"></path>
                    <path d="M4.2660178,16.1711395 L5.94263501,16.1711395 C6.5850089,16.1711395 7.10595846,15.650368 7.10595846,15.007816 C7.10595846,14.3652641 6.5850089,13.8444926 5.94263501,13.8444926 L4.2660178,13.8444926 C3.62364392,13.8444926 3.10269436,14.3652641 3.10269436,15.007816 C3.10269436,15.650368 3.62364392,16.1711395 4.2660178,16.1711395" id="Fill-5"></path>
                </g>
                <g id="Group-9" transform="translate(0.000000, 4.586172)">
                    <mask id="mask-2" fill="white">
                        <use xlink:href="#path-1"></use>
                    </mask>
                    <g id="Clip-8"></g>
                    <path d="M2.83985163,2.49576855 L1.16323442,2.49576855 C0.520860534,2.49576855 -8.90207715e-05,1.97481899 -8.90207715e-05,1.3324451 C-8.90207715e-05,0.689893175 0.520860534,0.169121662 1.16323442,0.169121662 L2.83985163,0.169121662 C3.48240356,0.169121662 4.00317507,0.689893175 4.00317507,1.3324451 C4.00317507,1.97481899 3.48240356,2.49576855 2.83985163,2.49576855" id="Fill-7" fill="#00B64E" mask="url(#mask-2)"></path>
                </g>
                <g id="Group-19" transform="translate(40.593472, 0.313175)">
                    <mask id="mask-4" fill="white">
                        <use xlink:href="#path-3"></use>
                    </mask>
                    <g id="Clip-18"></g>
                    <path d="M12.2538872,0.0631691395 L9.04789318,8.5744451 L5.57020772,0.0631691395 L0.0247477745,0.0631691395 L6.56225519,15.195276 L6.14456973,16.344 C5.91489614,16.9500534 5.66421365,17.3570564 5.37186944,17.5448902 C5.07934718,17.7330801 4.75566766,17.826908 4.41097923,17.826908 C4.0872997,17.826908 3.78445104,17.8060772 3.48160237,17.7435846 C3.19958457,17.6914184 2.94890208,17.6077389 2.7505638,17.5034065 L2.7505638,22.0253056 C2.80272997,22.0461365 2.85489614,22.0564629 2.91756677,22.0669674 C3.49210682,22.1924866 4.13946588,22.2553353 4.87050445,22.2553353 C5.45537092,22.2553353 6.01922849,22.1819822 6.56225519,22.035632 C7.10545994,21.8999644 7.62747774,21.6494599 8.11833828,21.2837626 C8.61952522,20.9182433 9.0895549,20.4378872 9.52824926,19.8426944 C9.97727003,19.2473234 10.3636202,18.5059585 10.7083086,17.6182433 L17.6740059,0.0631691395 L12.2538872,0.0631691395 Z" id="Fill-17" fill="#111111" mask="url(#mask-4)"></path>
                </g>
                <g id="Group-22" transform="translate(77.448071, 0.135134)">
                    <mask id="mask-6" fill="white">
                        <use xlink:href="#path-5"></use>
                    </mask>
                    <g id="Clip-21"></g>
                    <path d="M21.7235608,7.41450445 C21.7235608,5.35260534 20.5369139,4.22275371 18.7013056,4.22275371 C16.8656973,4.22275371 15.6792285,5.35260534 15.6792285,7.41450445 L15.6792285,15.9718932 L10.8781602,15.9718932 L10.8781602,7.41450445 C10.8781602,5.35260534 9.69169139,4.22275371 7.85608309,4.22275371 C6.02047478,4.22275371 4.83382789,5.35260534 4.83382789,7.41450445 L4.83382789,15.9718932 L0.00445103858,15.9718932 L0.00445103858,0.212724036 L4.83382789,0.212724036 L4.83382789,2.18934125 C5.76605341,0.918302671 7.37608309,0.0428724036 9.43762611,0.0428724036 C11.8100297,0.0428724036 13.7305638,1.08797626 14.8037982,2.98020178 C15.8490801,1.31391098 17.8256973,0.0428724036 20.1135312,0.0428724036 C24.0110386,0.0428724036 26.5246291,2.52833234 26.5246291,6.76518694 L26.5246291,15.9718932 L21.7235608,15.9718932 L21.7235608,7.41450445 Z" id="Fill-20" fill="#111111" mask="url(#mask-6)"></path>
                </g>
                <mask id="mask-8" fill="white">
                    <use xlink:href="#path-7"></use>
                </mask>
                <g id="Clip-24"></g>
                <polygon id="Fill-23" fill="#111111" mask="url(#mask-8)" points="106.73092 16.1419585 111.560297 16.1419585 111.560297 0.382611276 106.73092 0.382611276"></polygon>
                <path d="M66.4708487,12.7509258 C64.1304926,12.7509258 62.233638,10.8542493 62.233638,8.51781009 C62.233638,6.17727596 64.1304926,4.28059941 66.4708487,4.28059941 C68.8112047,4.28059941 70.7078813,6.17727596 70.7078813,8.51781009 C70.7078813,10.8542493 68.8112047,12.7509258 66.4708487,12.7509258 L66.4708487,12.7509258 Z M70.7078813,0.391459941 L70.7078813,1.83306231 C69.3962493,0.922913947 67.8054481,0.391459941 66.0884154,0.391459941 C61.5989199,0.391459941 57.9620653,4.0281365 57.9620653,8.51781009 C57.9620653,13.0033887 61.5989199,16.6439822 66.0884154,16.6439822 C67.8054481,16.6439822 69.3962493,16.1123501 70.7078813,15.2023798 L70.7078813,16.6400653 L74.5971988,16.6400653 L74.5971988,0.391459941 L70.7078813,0.391459941 Z" id="Fill-25" fill="#111111" mask="url(#mask-8)"></path>
            </g>
        </g>
    </g>
</svg>